<svg xmlns="http://www.w3.org/2000/svg" width="162" height="19"><path d="M69.332 12.356h5.032a.192.192 0 0 0 .165-.289L70.313 4.7a.19.19 0 0 0-.331 0 9.529 9.529 0 0 0-.833 7.521.192.192 0 0 0 .183.136zM78.064 0a9.268 9.268 0 0 0-6.854 3.028.194.194 0 0 0-.025.227l2.513 4.394a.19.19 0 0 0 .331 0l4.2-7.361A.193.193 0 0 0 78.064 0zm0 0l8.727 6.486h-5.03a.193.193 0 0 0-.166.289l4.214 7.36a.19.19 0 0 0 .331 0 9.529 9.529 0 0 0 .834-7.513.192.192 0 0 0-.183-.136zm0 0l-.643-1.769a9.355 9.355 0 0 0-6.036-4.488.191.191 0 0 0-.208.092l-2.515 4.4a.192.192 0 0 0 .165.289h8.428a.193.193 0 0 0 .166-.288zm0 0l-7.592 9.114-8.414.008a.192.192 0 0 0-.165.288A9.351 9.351 0 0 0 76 18.6a.191.191 0 0 0 .208-.092l2.515-4.395a.193.193 0 0 0-.166-.289zm0 0l3.871-2.644a.19.19 0 0 0-.331 0l-4.213 7.362a.193.193 0 0 0 .164.289h.013a9.268 9.268 0 0 0 6.856-3.029.194.194 0 0 0 .025-.227zM3.145 12c.076.9.1 2.147.1 3.349v3.093a.269.269 0 0 1-.227.23H.231a.246.246 0 0 1-.227-.23V.953A.32.32 0 0 1 .231.621H5.88c4.406 0 6.484 2.633 6.484 5.726 0 3.5-2.381 5.726-6.763 5.726-.987 0-1.822-.026-2.456-.073zM9 6.372a3.018 3.018 0 0 0-3.368-3.348c-.837 0-1.672-.026-2.458-.077.051.844.076 2.377.076 3.323 0 1.1-.025 2.608-.076 3.5.659-.051 1.47-.051 2.1-.051C7.73 9.721 9 8.7 9 6.372zm17.864 1.457c-.05-1.022-.05-2.121-.05-3.2V.877a.252.252 0 0 1 .228-.256H29.8a.274.274 0 0 1 .228.256v17.561a.27.27 0 0 1-.228.23h-2.761a.246.246 0 0 1-.228-.23v-4.473c0-1.2 0-2.429.05-3.579-1.012.051-1.621.051-2.482.051h-3.926c-.861 0-1.494 0-2.507-.051.05 1.15.076 2.377.076 3.579v4.473a.27.27 0 0 1-.228.23h-2.786a.246.246 0 0 1-.228-.23V.877a.252.252 0 0 1 .228-.256h2.786a.274.274 0 0 1 .228.256v3.757c0 1.074-.026 2.173-.076 3.2a39.83 39.83 0 0 1 2.558-.076h3.825c.91-.005 1.746.02 2.531.071zm24.4 1.534c0 5.777-3.849 9.637-9.117 9.637-5.04 0-9.119-3.783-9.119-9.637a9.12 9.12 0 1 1 18.233 0zm-3.571 0c0-4.55-2.279-6.7-5.521-6.7-3.293 0-5.573 2.122-5.573 6.7 0 4.192 1.951 7 5.548 7 3.719.004 5.543-2.782 5.543-7zM68.17.825v2.25a.161.161 0 0 1-.177.179c-.861 0-1.925-.051-2.812-.051-1.115 0-2.2-.026-3.317-.1.05.946.075 1.918.075 2.863v12.472a.27.27 0 0 1-.228.23h-2.76a.246.246 0 0 1-.228-.23V5.912c0-.945.024-1.917.076-2.812-1.013.077-2 .1-3.014.1-1.165 0-2.052.051-3.217.051a.161.161 0 0 1-.178-.205l.329-2.2c.026-.153.077-.23.178-.23h15.1a.17.17 0 0 1 .17.209zm21.8 17.844a.246.246 0 0 1-.228-.23V.877a.252.252 0 0 1 .228-.256h6.13c4.61 0 5.927 2.249 5.927 4.269 0 2.173-1.849 3.6-3.875 4.064a5.137 5.137 0 0 1 4.964 4.934c0 2.939-2.2 4.78-5.978 4.78h-7.167zm8.738-13.114c0-1.712-.962-2.556-3.242-2.556-.76 0-1.8-.025-2.583-.077.076.921.1 1.79.1 2.659s-.025 1.841-.1 2.684a20.222 20.222 0 0 1 2.2-.1c2.584-.003 3.622-1.051 3.622-2.611zm1.089 7.874c0-1.866-1.164-3.093-4.027-3.093a52.44 52.44 0 0 1-2.887-.077c.076.946.1 1.968.1 3.042 0 1.022-.025 2.019-.1 3.042a86.376 86.376 0 0 1 3.672-.077c2.226-.001 3.239-.947 3.239-2.838zm23.412-4.065c0 5.777-3.849 9.637-9.117 9.637-5.04 0-9.119-3.783-9.119-9.637a9.12 9.12 0 1 1 18.233-.001zm-3.571 0c0-4.55-2.279-6.7-5.521-6.7-3.293 0-5.573 2.122-5.573 6.7 0 4.192 1.951 7 5.548 7 3.719.003 5.543-2.783 5.543-7.001zm23.87 0c0 5.777-3.85 9.637-9.118 9.637-5.04 0-9.118-3.783-9.118-9.637a9.12 9.12 0 1 1 18.233-.001zm-3.571 0c0-4.55-2.28-6.7-5.522-6.7-3.292 0-5.572 2.122-5.572 6.7 0 4.192 1.95 7 5.547 7 3.72.003 5.544-2.783 5.544-7.001zm9.686 9.075a.27.27 0 0 1-.228.23h-2.787a.246.246 0 0 1-.227-.23V.877a.251.251 0 0 1 .227-.256h2.787a.274.274 0 0 1 .228.256v4.217c0 1.074-.026 2.173-.077 3.042h.482c.431 0 1.7-1.3 3.445-3.425 1.012-1.2 2.228-2.684 3.368-3.886a.572.572 0 0 1 .4-.2h3.242a.243.243 0 0 1 .2.281.33.33 0 0 1-.127.281 33.667 33.667 0 0 0-4.609 4.627 24.56 24.56 0 0 1-3.116 3.016 24.272 24.272 0 0 1 3.673 3.707 43.329 43.329 0 0 0 5.294 5.343.378.378 0 0 1 .2.383c0 .281-.1.409-.228.409h-3.47a.822.822 0 0 1-.456-.205 61.838 61.838 0 0 1-4.1-4.677c-1.773-2.224-3.166-3.63-3.723-3.63h-.507c.076.92.1 2.2.1 3.4v4.883z" fill-rule="evenodd"/></svg>