<svg xmlns="http://www.w3.org/2000/svg" width="162" height="19" viewBox="0 0 162 19">
  <metadata><?xpacket begin="﻿" id="W5M0MpCehiHzreSzNTczkc9d"?>
<x:xmpmeta xmlns:x="adobe:ns:meta/" x:xmptk="Adobe XMP Core 5.6-c138 79.159824, 2016/09/14-01:09:01        ">
   <rdf:RDF xmlns:rdf="http://www.w3.org/1999/02/22-rdf-syntax-ns#">
      <rdf:Description rdf:about=""/>
   </rdf:RDF>
</x:xmpmeta>
                                                                                                    
                                                                                                    
                                                                                                    
                                                                                                    
                                                                                                    
                                                                                                    
                                                                                                    
                                                                                                    
                                                                                                    
                                                                                                    
                                                                                                    
                                                                                                    
                                                                                                    
                                                                                                    
                                                                                                    
                                                                                                    
                                                                                                    
                                                                                                    
                                                                                                    
                                                                                                    
                           
<?xpacket end="w"?></metadata>
<defs>
    <style>
      .cls-1 {
        fill-rule: evenodd;
      }
    </style>
  </defs>
  <path class="cls-1" d="M319.332,43.356h5.032a0.192,0.192,0,0,0,.165-0.289L320.313,35.7a0.19,0.19,0,0,0-.331,0,9.529,9.529,0,0,0-.833,7.521,0.192,0.192,0,0,0,.183.136h0Zm0,0M328.064,31h0a9.268,9.268,0,0,0-6.854,3.028,0.194,0.194,0,0,0-.025.227l2.513,4.394a0.19,0.19,0,0,0,.331,0l4.2-7.361A0.193,0.193,0,0,0,328.064,31h0Zm0,0,8.727,6.486h-5.03a0.193,0.193,0,0,0-.166.289l4.214,7.36a0.19,0.19,0,0,0,.331,0,9.529,9.529,0,0,0,.834-7.513,0.192,0.192,0,0,0-.183-0.136h0Zm0,0-0.643-1.769a9.355,9.355,0,0,0-6.036-4.488,0.191,0.191,0,0,0-.208.092l-2.515,4.4a0.192,0.192,0,0,0,.165.289l8.428,0a0.193,0.193,0,0,0,.166-0.288h0Zm0,0-7.592,9.114-8.414.008a0.192,0.192,0,0,0-.165.288A9.351,9.351,0,0,0,326,49.6a0.191,0.191,0,0,0,.208-0.092l2.515-4.395a0.193,0.193,0,0,0-.166-0.289h0Zm0,0,3.871-2.644a0.19,0.19,0,0,0-.331,0l-4.213,7.362a0.193,0.193,0,0,0,.164.289h0.013a9.268,9.268,0,0,0,6.856-3.029,0.194,0.194,0,0,0,.025-0.227Zm0,0M253.145,43c0.076,0.9.1,2.147,0.1,3.349v3.093a0.269,0.269,0,0,1-.227.23h-2.787a0.246,0.246,0,0,1-.227-0.23V31.953a0.32,0.32,0,0,1,.227-0.332h5.649c4.406,0,6.484,2.633,6.484,5.726,0,3.5-2.381,5.726-6.763,5.726C254.614,43.073,253.779,43.047,253.145,43ZM259,37.372a3.018,3.018,0,0,0-3.368-3.348c-0.837,0-1.672-.026-2.458-0.077,0.051,0.844.076,2.377,0.076,3.323,0,1.1-.025,2.608-0.076,3.5,0.659-.051,1.47-0.051,2.1-0.051C257.73,40.721,259,39.7,259,37.372Zm17.864,1.457c-0.05-1.022-.05-2.121-0.05-3.2V31.877a0.252,0.252,0,0,1,.228-0.256H279.8a0.274,0.274,0,0,1,.228.256V49.438a0.27,0.27,0,0,1-.228.23h-2.761a0.246,0.246,0,0,1-.228-0.23V44.965c0-1.2,0-2.429.05-3.579-1.012.051-1.621,0.051-2.482,0.051h-3.926c-0.861,0-1.494,0-2.507-.051,0.05,1.15.076,2.377,0.076,3.579v4.473a0.27,0.27,0,0,1-.228.23h-2.786a0.246,0.246,0,0,1-.228-0.23V31.877a0.252,0.252,0,0,1,.228-0.256h2.786a0.274,0.274,0,0,1,.228.256v3.757c0,1.074-.026,2.173-0.076,3.2,0.785-.051,1.646-0.076,2.558-0.076h3.825C275.239,38.753,276.075,38.778,276.86,38.829Zm24.4,1.534c0,5.777-3.849,9.637-9.117,9.637-5.04,0-9.119-3.783-9.119-9.637A9.12,9.12,0,1,1,301.261,40.363Zm-3.571,0c0-4.55-2.279-6.7-5.521-6.7-3.293,0-5.573,2.122-5.573,6.7,0,4.192,1.951,7,5.548,7C295.866,47.367,297.69,44.581,297.69,40.363Zm20.477-8.538v2.25a0.161,0.161,0,0,1-.177.179c-0.861,0-1.925-.051-2.812-0.051-1.115,0-2.2-.026-3.317-0.1,0.05,0.946.075,1.918,0.075,2.863V49.438a0.27,0.27,0,0,1-.228.23h-2.76a0.246,0.246,0,0,1-.228-0.23V36.912c0-.945.024-1.917,0.076-2.812-1.013.077-2,.1-3.014,0.1-1.165,0-2.052.051-3.217,0.051a0.161,0.161,0,0,1-.178-0.205l0.329-2.2c0.026-.153.077-0.23,0.178-0.23h15.1A0.17,0.17,0,0,1,318.167,31.825Zm21.8,17.844a0.246,0.246,0,0,1-.228-0.23V31.877a0.252,0.252,0,0,1,.228-0.256H346.1c4.61,0,5.927,2.249,5.927,4.269,0,2.173-1.849,3.6-3.875,4.064a5.137,5.137,0,0,1,4.964,4.934c0,2.939-2.2,4.78-5.978,4.78h-7.167Zm8.738-13.114c0-1.712-.962-2.556-3.242-2.556-0.76,0-1.8-.025-2.583-0.077,0.076,0.921.1,1.79,0.1,2.659s-0.025,1.841-.1,2.684a20.222,20.222,0,0,1,2.2-.1C347.667,39.162,348.705,38.114,348.705,36.554Zm1.089,7.874c0-1.866-1.164-3.093-4.027-3.093-0.937,0-2.026-.026-2.887-0.077,0.076,0.946.1,1.968,0.1,3.042,0,1.022-.025,2.019-0.1,3.042,1.139-.051,2.482-0.077,3.672-0.077C348.781,47.265,349.794,46.319,349.794,44.428Zm23.412-4.065c0,5.777-3.849,9.637-9.117,9.637-5.04,0-9.119-3.783-9.119-9.637A9.12,9.12,0,1,1,373.206,40.363Zm-3.571,0c0-4.55-2.279-6.7-5.521-6.7-3.293,0-5.573,2.122-5.573,6.7,0,4.192,1.951,7,5.548,7C367.811,47.367,369.635,44.581,369.635,40.363Zm23.87,0c0,5.777-3.85,9.637-9.118,9.637-5.04,0-9.118-3.783-9.118-9.637A9.12,9.12,0,1,1,393.505,40.363Zm-3.571,0c0-4.55-2.28-6.7-5.522-6.7-3.292,0-5.572,2.122-5.572,6.7,0,4.192,1.95,7,5.547,7C388.11,47.367,389.934,44.581,389.934,40.363Zm9.686,9.075a0.27,0.27,0,0,1-.228.23h-2.787a0.246,0.246,0,0,1-.227-0.23V31.877a0.251,0.251,0,0,1,.227-0.256h2.787a0.274,0.274,0,0,1,.228.256v4.217c0,1.074-.026,2.173-0.077,3.042h0.482c0.431,0,1.7-1.3,3.445-3.425,1.012-1.2,2.228-2.684,3.368-3.886a0.572,0.572,0,0,1,.4-0.2h3.242a0.243,0.243,0,0,1,.2.281,0.33,0.33,0,0,1-.127.281,33.667,33.667,0,0,0-4.609,4.627,24.56,24.56,0,0,1-3.116,3.016,24.272,24.272,0,0,1,3.673,3.707,43.329,43.329,0,0,0,5.294,5.343,0.378,0.378,0,0,1,.2.383c0,0.281-.1.409-0.228,0.409h-3.47a0.822,0.822,0,0,1-.456-0.205,61.838,61.838,0,0,1-4.1-4.677c-1.773-2.224-3.166-3.63-3.723-3.63h-0.507c0.076,0.92.1,2.2,0.1,3.4v4.883Z" transform="translate(-250 -31)"/>
</svg>
